control3min_grf.mot
version=1
nRows=10
nColumns 19
inDegrees=yes
endheader
time	1_ground_force_vx	1_ground_force_vy	1_ground_force_vz	1_ground_force_px	1_ground_force_py	1_ground_force_pz	1_ground_torque_x	1_ground_torque_y	1_ground_torque_z	2_ground_force_vx	2_ground_force_vy	2_ground_force_vz	2_ground_force_px	2_ground_force_py	2_ground_force_pz	2_ground_torque_x	2_ground_torque_y	2_ground_torque_z
            3.751500	           -0.702415	           32.282758	           -3.436694	           -0.162822	            0.006251	           -0.408744	            0.004576	           -0.210312	            0.022389	            5.284279	           15.494103	           -1.730346	           -0.188943	            0.005980	           -0.747864	           -0.024749	           -0.072566	            0.008104
            3.752000	           -0.701454	           31.380053	           -3.119568	           -0.160569	            0.006248	           -0.407969	            0.003519	           -0.157438	            0.015651	            5.238073	           15.309953	           -1.777912	           -0.191903	            0.005986	           -0.752282	           -0.014275	           -0.041723	            0.004845
            3.752500	           -0.655821	           30.659589	           -3.260341	           -0.163479	            0.006250	           -0.408738	            0.001847	           -0.086356	            0.009183	            5.053208	           14.573688	           -2.062029	           -0.193532	            0.005995	           -0.756513	           -0.004417	           -0.012739	            0.001802
            3.753000	           -0.793185	           29.758234	           -3.263865	           -0.163078	            0.006244	           -0.407152	           -0.000337	            0.012634	           -0.001386	            4.962955	           13.651604	           -1.783706	           -0.189604	            0.005981	           -0.748798	           -0.007845	           -0.021578	            0.002819
            3.753500	           -0.701059	           29.216865	           -3.128843	           -0.161031	            0.006236	           -0.405261	           -0.000076	            0.003158	           -0.000338	            4.960961	           14.204048	           -1.781734	           -0.192559	            0.005996	           -0.755968	           -0.006297	           -0.018028	            0.002261
            3.754000	           -0.791945	           27.954005	           -2.904747	           -0.158994	            0.006246	           -0.407555	            0.002938	           -0.103690	            0.010775	            4.825749	           12.730187	           -1.740003	           -0.189771	            0.005993	           -0.752309	           -0.017819	           -0.047006	            0.006425
            3.754500	           -0.884021	           27.594242	           -3.089489	           -0.161139	            0.006229	           -0.403623	            0.005061	           -0.157977	            0.017687	            4.918058	           13.099324	           -1.879513	           -0.193435	            0.006000	           -0.757753	           -0.002833	           -0.007547	            0.001083
            3.755000	           -0.975443	           26.152099	           -3.095445	           -0.160442	            0.006242	           -0.406687	            0.007629	           -0.204549	            0.024211	            4.453320	           11.994584	           -2.399465	           -0.193273	            0.005954	           -0.744912	           -0.008108	           -0.021837	            0.004368
            3.755500	           -0.700239	           25.971690	           -3.051045	           -0.159811	            0.006232	           -0.404214	            0.003311	           -0.122804	            0.014427	            4.782599	           11.627471	           -2.400919	           -0.184686	            0.005998	           -0.748538	           -0.026315	           -0.063977	            0.013210
            3.756000	           -0.698822	           25.068199	           -2.550495	           -0.162583	            0.006228	           -0.403589	            0.000108	           -0.003867	            0.000393	            4.551816	           10.704712	           -2.075608	           -0.189620	            0.005969	           -0.745422	           -0.033835	           -0.079571	            0.015429
